<svg xmlns="http://www.w3.org/2000/svg" xml:space="preserve" >
<symbol id="person" viewBox="0 0 29 29"
		xmlns="http://www.w3.org/2000/svg" xmlns:xlink="http://www.w3.org/1999/xlink" >
<path fill-rule="evenodd"  fill="rgb(33, 40, 83)"
	  d="M26.307,30.115 L0.693,30.115 C0.310,30.115 -0.000,29.808 -0.000,29.429 L-0.000,24.584 C-0.000,22.599 1.202,20.840 3.063,20.103 L9.124,17.703 C9.298,17.634 9.493,17.637 9.665,17.714 C9.836,17.790 9.969,17.932 10.033,18.107 L11.557,22.278 L11.858,21.419 L11.378,20.257 C11.291,20.045 11.316,19.805 11.444,19.614 C11.573,19.425 11.789,19.311 12.020,19.311 L14.980,19.311 C15.211,19.311 15.427,19.425 15.556,19.614 C15.684,19.805 15.709,20.045 15.622,20.257 L15.142,21.419 L15.443,22.278 L16.967,18.107 C17.031,17.932 17.164,17.790 17.335,17.714 C17.507,17.638 17.702,17.634 17.876,17.703 L23.937,20.103 C25.798,20.840 27.000,22.599 27.000,24.584 L27.000,29.429 C27.000,29.808 26.690,30.115 26.307,30.115 ZM22.846,25.735 C22.846,25.286 22.526,24.923 22.131,24.923 L17.330,24.923 C16.935,24.923 16.615,25.286 16.615,25.735 L16.615,28.265 C16.615,28.713 16.935,29.077 17.330,29.077 L22.131,29.077 C22.526,29.077 22.846,28.713 22.846,28.265 L22.846,25.735 ZM18.525,13.581 C18.173,14.305 17.401,15.785 16.628,16.529 C16.319,16.825 15.917,17.076 15.435,17.274 C14.818,17.526 14.167,17.654 13.500,17.654 C12.833,17.654 12.182,17.526 11.565,17.274 C11.083,17.076 10.681,16.825 10.372,16.529 C9.599,15.785 8.827,14.305 8.475,13.581 C7.905,13.501 6.835,13.103 6.377,11.297 C6.132,10.331 6.195,9.544 6.564,8.958 C6.727,8.698 6.925,8.521 7.109,8.402 C7.109,8.209 7.117,7.968 7.139,7.693 C6.807,7.218 6.357,6.194 6.915,4.536 C7.505,2.784 8.838,2.514 9.482,2.490 C9.699,2.073 10.111,1.481 10.857,0.937 C11.686,0.332 12.768,-0.000 13.904,-0.000 C15.302,-0.000 16.709,0.507 17.973,1.467 C20.021,3.022 19.845,6.472 19.795,7.099 C19.870,7.624 19.890,8.080 19.891,8.401 C20.075,8.521 20.273,8.698 20.436,8.957 C20.805,9.544 20.868,10.331 20.623,11.297 C20.165,13.103 19.095,13.501 18.525,13.581 Z"/>
</symbol>
<symbol  id="skate" viewBox="0 0 28 28" xmlns="http://www.w3.org/2000/svg" xmlns:xlink="http://www.w3.org/1999/xlink" >
    <path fill-rule="evenodd"  fill="rgb(33, 40, 83)"
		  d="M23.927,19.051 L24.656,21.605 C24.901,22.463 24.736,23.364 24.204,24.077 C23.672,24.791 22.859,25.200 21.974,25.200 L5.026,25.200 C4.141,25.200 3.328,24.791 2.796,24.077 C2.264,23.364 2.099,22.463 2.344,21.605 L3.072,19.051 L-0.000,19.051 L-0.000,9.090 C5.155,8.592 7.001,10.231 8.955,11.965 C10.372,13.223 11.838,14.524 14.456,15.085 C15.103,15.224 15.714,15.293 16.289,15.293 C17.580,15.293 18.686,14.943 19.590,14.247 C21.205,13.004 21.649,11.028 21.766,10.215 C21.916,10.244 22.067,10.272 22.221,10.298 C24.990,10.777 27.000,13.176 27.000,16.004 L27.000,19.051 L23.927,19.051 Z"/>
	<path fill-rule="evenodd"  fill="rgb(33, 40, 83)"
		  d="M14.666,10.900 L13.588,9.801 L15.661,7.823 C15.523,7.679 15.405,7.533 15.308,7.382 C15.267,7.320 15.228,7.258 15.189,7.196 L12.580,8.685 L11.804,7.361 L14.420,5.868 C14.270,5.586 14.135,5.312 14.012,5.049 L11.194,6.103 L10.645,4.673 L13.422,3.634 C12.971,2.399 12.854,1.617 12.852,1.604 L12.735,0.750 L7.056,2.205 C6.646,0.928 5.434,-0.000 4.006,-0.000 L-0.000,-0.000 L-0.000,7.554 C2.452,7.338 4.459,7.560 6.122,8.231 C7.685,8.863 8.758,9.794 9.794,10.694 C11.090,11.819 12.313,12.882 14.480,13.335 C16.076,13.670 17.343,13.494 18.248,12.813 C19.471,11.892 19.748,10.254 19.800,9.830 C18.650,9.532 17.681,9.168 16.919,8.749 L14.666,10.900 Z"/>
</symbol>
<symbol id="glove" viewBox="0 0 27 27"
		xmlns="http://www.w3.org/2000/svg"
		xmlns:xlink="http://www.w3.org/1999/xlink"
		>
    <path fill-rule="evenodd"  fill="rgb(33, 40, 83)"
		  d="M23.248,26.333 L7.061,26.333 C6.306,25.754 5.756,24.920 5.542,23.960 L0.854,18.930 C0.284,18.323 -0.017,17.527 0.009,16.691 C0.036,15.855 0.386,15.079 0.996,14.507 C1.606,13.934 2.400,13.633 3.238,13.660 C4.074,13.686 4.849,14.036 5.422,14.646 L5.442,14.668 L5.442,6.395 C5.442,4.668 6.847,3.264 8.573,3.264 C9.020,3.264 9.445,3.358 9.829,3.527 L9.829,3.131 C9.829,1.405 11.234,-0.000 12.961,-0.000 C13.814,-0.000 14.589,0.344 15.154,0.899 C15.720,0.344 16.494,-0.000 17.348,-0.000 C19.075,-0.000 20.479,1.405 20.479,3.131 L20.479,3.984 C20.864,3.815 21.289,3.720 21.736,3.720 C23.462,3.720 24.867,5.125 24.867,6.851 L24.867,23.060 C24.867,24.392 24.231,25.579 23.248,26.333 ZM20.863,17.062 L9.446,17.062 L9.446,23.130 L20.863,23.130 L20.863,17.062 Z"/>
</symbol>
<symbol id="stick" viewBox="0 0 32 32" xmlns="http://www.w3.org/2000/svg" xmlns:xlink="http://www.w3.org/1999/xlink" >
    <path fill-rule="evenodd"  fill="rgb(33, 40, 83)"
		  d="M28.382,25.428 L28.382,14.868 L32.002,14.868 L32.002,25.428 L28.382,25.428 ZM24.902,24.581 C24.902,23.677 24.498,21.991 21.790,20.845 C20.295,20.212 18.347,19.863 16.307,19.863 C14.267,19.863 12.320,20.212 10.824,20.845 C10.435,21.009 10.094,21.185 9.795,21.367 L-0.000,0.019 L6.398,0.019 L13.212,14.868 L26.509,14.868 L26.509,25.428 L24.785,25.428 C24.874,25.107 24.902,24.817 24.902,24.581 ZM22.093,26.029 C20.922,26.865 18.770,27.425 16.307,27.425 C13.845,27.425 11.692,26.865 10.521,26.029 C9.926,25.605 9.585,25.110 9.585,24.581 C9.585,24.033 9.950,23.521 10.585,23.088 C11.769,22.277 13.889,21.736 16.307,21.736 C20.020,21.736 23.030,23.010 23.030,24.581 C23.030,24.876 22.924,25.160 22.726,25.428 C22.570,25.640 22.356,25.841 22.093,26.029 ZM10.521,28.181 C10.618,28.227 10.719,28.272 10.824,28.316 C12.319,28.949 14.267,29.298 16.307,29.298 C18.347,29.298 20.295,28.949 21.790,28.316 C21.895,28.272 21.996,28.227 22.093,28.181 C22.447,28.016 22.758,27.841 23.030,27.660 C23.413,27.404 23.721,27.137 23.966,26.868 L23.966,28.201 C23.966,28.873 23.636,30.139 21.425,31.075 C20.043,31.659 18.225,31.981 16.307,31.981 C14.389,31.981 12.571,31.659 11.189,31.075 C8.978,30.139 8.648,28.873 8.648,28.201 L8.648,26.868 C8.893,27.137 9.200,27.404 9.584,27.660 C9.857,27.841 10.167,28.016 10.521,28.181 Z"/>
</symbol>
<symbol id="scanner" viewBox="0 0 35 35" xmlns="http://www.w3.org/2000/svg"	xmlns:xlink="http://www.w3.org/1999/xlink" >
    <path fill-rule="evenodd"  fill="rgb(33, 40, 83)"
		  d="M28.004,25.684 C26.960,25.829 25.433,26.000 24.082,26.000 C23.714,26.000 23.372,25.987 23.064,25.962 C22.173,25.890 21.254,25.661 20.282,25.418 C18.994,25.097 17.663,24.766 16.268,24.766 C15.522,24.766 14.833,24.860 14.159,25.053 C13.233,25.319 12.358,25.454 11.558,25.454 C9.398,25.454 7.898,24.496 7.222,22.685 C6.559,20.911 7.519,19.370 8.290,18.130 C8.719,17.441 9.124,16.789 9.152,16.269 C9.222,14.976 8.358,9.364 7.891,6.577 C7.867,6.433 7.908,6.286 8.002,6.175 C8.096,6.064 8.234,6.000 8.379,6.000 L15.589,6.000 C15.843,6.000 16.056,6.193 16.082,6.445 L16.688,12.492 C16.830,13.664 17.465,14.741 18.430,15.438 L25.296,20.397 L27.642,20.397 C29.107,20.397 30.298,21.588 30.298,23.053 C30.298,24.373 29.312,25.504 28.004,25.684 ZM14.830,18.373 C14.562,18.321 14.302,18.497 14.250,18.765 C14.242,18.806 14.044,19.757 12.805,19.757 C11.701,19.757 11.601,18.991 11.593,18.843 C11.584,18.570 11.355,18.355 11.082,18.364 C10.809,18.373 10.594,18.602 10.603,18.875 C10.624,19.523 11.111,20.747 12.805,20.747 C14.443,20.747 15.103,19.574 15.223,18.953 C15.274,18.685 15.099,18.425 14.830,18.373 Z"/>
	<path fill-rule="evenodd"  fill="rgb(33, 40, 83)"
		  d="M-0.000,0.000 L6.000,0.000 L6.000,3.000 L-0.000,3.000 L-0.000,0.000 Z"/>
	<path fill-rule="evenodd"  fill="rgb(33, 40, 83)"
		  d="M3.000,0.000 L3.000,6.000 L-0.000,6.000 L-0.000,0.000 L3.000,0.000 Z"/>
	<path fill-rule="evenodd"  fill="rgb(33, 40, 83)"
		  d="M-0.000,34.000 L6.000,34.000 L6.000,31.000 L-0.000,31.000 L-0.000,34.000 Z"/>
	<path fill-rule="evenodd"  fill="rgb(33, 40, 83)"
		  d="M3.000,34.000 L3.000,28.000 L-0.000,28.000 L-0.000,34.000 L3.000,34.000 Z"/>
	<path fill-rule="evenodd"  fill="rgb(33, 40, 83)"
		  d="M28.000,0.000 L34.000,0.000 L34.000,3.000 L28.000,3.000 L28.000,0.000 Z"/>
	<path fill-rule="evenodd"  fill="rgb(33, 40, 83)"
		  d="M34.000,0.000 L34.000,6.000 L31.000,6.000 L31.000,0.000 L34.000,0.000 Z"/>
	<path fill-rule="evenodd"  fill="rgb(33, 40, 83)"
		  d="M28.000,34.000 L34.000,34.000 L34.000,31.000 L28.000,31.000 L28.000,34.000 Z"/>
	<path fill-rule="evenodd"  fill="rgb(33, 40, 83)"
		  d="M34.000,34.000 L34.000,28.000 L31.000,28.000 L31.000,34.000 L34.000,34.000 Z"/>
</symbol>
	<symbol id="question"
			xmlns="http://www.w3.org/2000/svg"
			xmlns:xlink="http://www.w3.org/1999/xlink"
			>
<path fill-rule="evenodd"  stroke="rgb(110, 120, 133)" stroke-width="1px" stroke-linecap="butt" stroke-linejoin="miter" opacity="0.6" fill="none"
	  d="M9.500,18.500 C14.471,18.500 18.500,14.471 18.500,9.500 C18.500,4.529 14.471,0.500 9.500,0.500 C4.529,0.500 0.500,4.529 0.500,9.500 C0.500,14.471 4.529,18.500 9.500,18.500 Z"/>
		<text kerning="auto" font-family="ProximaNova" fill="rgb(43, 47, 224)" font-weight="bold" font-size="13px" x="6.5px" y="13.849px">&#63;</text>
</symbol>
	<symbol id="mark" xmlns="http://www.w3.org/2000/svg" xmlns:xlink="http://www.w3.org/1999/xlink">
<path fill-rule="evenodd"  fill="rgb(255, 255, 255)"
	  d="M9.155,8.750 L5.250,14.000 L1.345,8.750 C0.511,7.820 -0.000,6.596 -0.000,5.250 C-0.000,2.352 2.350,-0.000 5.250,-0.000 C8.149,-0.000 10.500,2.352 10.500,5.250 C10.500,6.596 9.989,7.820 9.155,8.750 ZM5.250,3.500 C4.283,3.500 3.500,4.284 3.500,5.250 C3.500,6.217 4.283,7.000 5.250,7.000 C6.216,7.000 7.000,6.217 7.000,5.250 C7.000,4.284 6.216,3.500 5.250,3.500 Z"/>
</symbol>
</svg>